<svg xmlns="http://www.w3.org/2000/svg" width="64" height="64" viewBox="0 0 64 64" fill="none"><metadata><rdf:RDF xmlns:rdf="http://www.w3.org/1999/02/22-rdf-syntax-ns#" xmlns:dc="http://purl.org/dc/elements/1.1/"><rdf:Description><dc:creator>RealFaviconGenerator</dc:creator><dc:source>https://realfavicongenerator.net</dc:source></rdf:Description></rdf:RDF></metadata><path fill-rule="evenodd" clip-rule="evenodd" d="M46.9646 10.8703C47.0362 11.418 46.6503 11.92 46.1027 11.9916C43.7638 12.2974 40.7349 13.6427 37.6488 15.7253C34.5816 17.7952 31.5483 20.5327 29.1951 23.5143C26.6593 26.7291 25.5185 29.4619 25.496 31.2526C25.4852 32.1151 25.7308 32.668 26.0993 33.0119C26.4781 33.3654 27.1412 33.6427 28.2499 33.6283L28.2513 33.6283C29.9283 33.6089 32.1243 32.9163 34.5414 31.6539C35.031 31.3983 35.6351 31.5879 35.8907 32.0774C36.1464 32.567 35.9568 33.1711 35.4673 33.4267C32.9296 34.752 30.4062 35.6033 28.2752 35.6281C26.8441 35.6467 25.6108 35.2918 24.7347 34.474C23.8481 33.6464 23.4803 32.4887 23.4962 31.2275C23.527 28.7707 24.9996 25.6038 27.6248 22.2757L27.6249 22.2754C30.1165 19.1185 33.3062 16.2431 36.5301 14.0675C39.7352 11.9045 43.0655 10.3716 45.8434 10.0084C46.391 9.93683 46.893 10.3227 46.9646 10.8703Z" fill="#E31E25"></path><path fill-rule="evenodd" clip-rule="evenodd" d="M40.4769 32.2713C40.446 34.7281 38.9734 37.895 36.3483 41.2232L36.3481 41.2234C33.8566 44.3803 30.6668 47.2557 27.4429 49.4314C24.2378 51.5943 20.9075 53.1272 18.1296 53.4904C17.582 53.562 17.08 53.1761 17.0084 52.6285C16.9368 52.0809 17.3227 51.5789 17.8703 51.5073C20.2092 51.2015 23.2381 49.8562 26.3242 47.7735C29.3914 45.7036 32.4248 42.9662 34.7779 39.9846C37.3137 36.7697 38.4545 34.037 38.477 32.2463C38.4878 31.3838 38.2422 30.8309 37.8737 30.4869C37.495 30.1334 36.8318 29.8561 35.7232 29.8705L35.7217 29.8705C34.0448 29.89 31.8487 30.5825 29.4316 31.8449C28.942 32.1005 28.3379 31.9109 28.0823 31.4214C27.8266 30.9319 28.0162 30.3277 28.5057 30.0721C31.0434 28.7468 33.5668 27.8956 35.6978 27.8707C37.1289 27.8522 38.3622 28.2071 39.2384 29.0249C40.125 29.8524 40.4927 31.0101 40.4769 32.2713Z" fill="#059746"></path></svg>